<svg xmlns="http://www.w3.org/2000/svg" viewBox="3 0 220 56" width="440" height="112">
  <defs>
    <linearGradient id="brand" x1="0%" y1="0%" x2="100%" y2="100%">
      <stop offset="0%" stop-color="#4F46E5"/>
      <stop offset="100%" stop-color="#7C3AED"/>
    </linearGradient>
  </defs>

  <!-- Cycle icon mark -->
  <g transform="translate(20, 24)" stroke="url(#brand)" fill="none" stroke-width="3.8" stroke-linecap="round" stroke-linejoin="round">
    <path d="M -2,-13 C 9,-13 14,-8 14,0 C 14,5 12,9 8,12"/>
    <path d="M 12,8 L 7,13 L 3,9" stroke-width="3.4"/>
    <path d="M 2,13 C -9,13 -14,8 -14,0 C -14,-5 -12,-9 -8,-12"/>
    <path d="M -12,-8 L -7,-13 L -3,-9" stroke-width="3.4"/>
  </g>

  <!-- Wordmark as vector paths (Plus Jakarta Sans 800) -->
  <g transform="translate(42, 38.5) scale(0.78)" fill="url(#brand)">
    <path d="M14.86 0.55L14.86 0.55Q11.09 0.55 8.07-1.17Q5.06-2.90 3.29-5.89Q1.52-8.88 1.52-12.60L1.52-12.60Q1.52-16.33 3.27-19.30Q5.01-22.26 8.05-23.97Q11.09-25.67 14.86-25.67L14.86-25.67Q17.66-25.67 20.06-24.70Q22.45-23.74 24.15-22.01Q25.85-20.29 26.59-17.94L26.59-17.94L20.61-15.36Q19.96-17.25 18.42-18.35Q16.88-19.46 14.86-19.46L14.86-19.46Q13.06-19.46 11.66-18.58Q10.26-17.71 9.45-16.15Q8.65-14.58 8.65-12.56L8.65-12.56Q8.65-10.53 9.45-8.97Q10.26-7.41 11.66-6.53Q13.06-5.66 14.86-5.66L14.86-5.66Q16.93-5.66 18.45-6.76Q19.96-7.87 20.61-9.75L20.61-9.75L26.59-7.13Q25.90-4.92 24.20-3.17Q22.49-1.43 20.10-0.44Q17.71 0.55 14.86 0.55ZM38.41 0.55L38.41 0.55Q35.70 0.55 33.72-0.32Q31.74-1.20 30.68-2.83Q29.62-4.46 29.62-6.72L29.62-6.72Q29.62-8.83 30.59-10.46Q31.56-12.10 33.56-13.20Q35.56-14.31 38.55-14.77L38.55-14.77L46.23-16.01L46.23-10.95L39.79-9.80Q38.32-9.52 37.54-8.86Q36.75-8.19 36.75-6.95L36.75-6.95Q36.75-5.80 37.63-5.15Q38.50-4.51 39.79-4.51L39.79-4.51Q41.49-4.51 42.78-5.24Q44.07-5.98 44.78-7.25Q45.49-8.51 45.49-10.03L45.49-10.03L45.49-16.56Q45.49-17.99 44.37-18.95Q43.24-19.92 41.31-19.92L41.31-19.92Q39.47-19.92 38.06-18.91Q36.66-17.89 36.02-16.24L36.02-16.24L30.50-18.86Q31.23-20.98 32.84-22.49Q34.45-24.01 36.71-24.84Q38.96-25.67 41.63-25.67L41.63-25.67Q44.80-25.67 47.24-24.52Q49.68-23.37 51.04-21.32Q52.39-19.27 52.39-16.56L52.39-16.56L52.39 0L45.95 0L45.95-4.05L47.52-4.32Q46.41-2.67 45.08-1.59Q43.75-0.51 42.09 0.02Q40.43 0.55 38.41 0.55ZM67.30 0.55L67.30 0.55Q63.16 0.55 60.10-1.40Q57.04-3.36 55.94-6.67L55.94-6.67L61.00-9.06Q61.96-7.04 63.62-5.89Q65.27-4.74 67.30-4.74L67.30-4.74Q68.77-4.74 69.55-5.34Q70.33-5.93 70.33-6.99L70.33-6.99Q70.33-7.54 70.06-7.93Q69.78-8.33 69.23-8.65Q68.68-8.97 67.85-9.20L67.85-9.20L63.57-10.40Q60.49-11.27 58.83-13.22Q57.18-15.18 57.18-17.85L57.18-17.85Q57.18-20.19 58.37-21.94Q59.57-23.69 61.73-24.68Q63.89-25.67 66.70-25.67L66.70-25.67Q70.38-25.67 73.16-23.94Q75.95-22.22 77.10-19.09L77.10-19.09L71.99-16.70Q71.44-18.26 69.99-19.20Q68.54-20.15 66.70-20.15L66.70-20.15Q65.37-20.15 64.61-19.60Q63.85-19.04 63.85-18.08L63.85-18.08Q63.85-17.57 64.12-17.16Q64.40-16.74 65.02-16.42Q65.64-16.10 66.56-15.82L66.56-15.82L70.56-14.63Q73.69-13.71 75.35-11.85Q77.00-9.98 77.00-7.27L77.00-7.27Q77.00-4.92 75.78-3.17Q74.57-1.43 72.40-0.44Q70.24 0.55 67.30 0.55ZM88.04 0L81.14 0L81.14-34.82L88.04-34.82L88.04-20.15L87.22-21.25Q88.09-23.51 90.04-24.59Q92.00-25.67 94.62-25.67L94.62-25.67Q97.47-25.67 99.61-24.47Q101.75-23.28 102.95-21.14Q104.14-19.00 104.14-16.15L104.14-16.15L104.14 0L97.24 0L97.24-14.67Q97.24-16.15 96.67-17.20Q96.09-18.26 95.06-18.86Q94.02-19.46 92.64-19.46L92.64-19.46Q91.31-19.46 90.25-18.86Q89.19-18.26 88.62-17.20Q88.04-16.15 88.04-14.67L88.04-14.67L88.04 0ZM121.03 0.55L121.03 0.55Q117.25 0.55 114.24-1.17Q111.23-2.90 109.46-5.89Q107.69-8.88 107.69-12.60L107.69-12.60Q107.69-16.33 109.43-19.30Q111.18-22.26 114.22-23.97Q117.25-25.67 121.03-25.67L121.03-25.67Q123.83-25.67 126.22-24.70Q128.62-23.74 130.32-22.01Q132.02-20.29 132.76-17.94L132.76-17.94L126.78-15.36Q126.13-17.25 124.59-18.35Q123.05-19.46 121.03-19.46L121.03-19.46Q119.23-19.46 117.83-18.58Q116.43-17.71 115.62-16.15Q114.82-14.58 114.82-12.56L114.82-12.56Q114.82-10.53 115.62-8.97Q116.43-7.41 117.83-6.53Q119.23-5.66 121.03-5.66L121.03-5.66Q123.10-5.66 124.61-6.76Q126.13-7.87 126.78-9.75L126.78-9.75L132.76-7.13Q132.07-4.92 130.36-3.17Q128.66-1.43 126.27-0.44Q123.88 0.55 121.03 0.55ZM140.71 10.12L140.71 10.12Q139.61 10.12 138.57 9.94Q137.54 9.75 136.76 9.34L136.76 9.34L136.76 3.68Q137.40 3.86 138.28 4.00Q139.15 4.14 139.89 4.14L139.89 4.14Q141.91 4.14 142.78 3.20Q143.66 2.25 144.21 1.06L144.21 1.06L145.91-2.85L145.82 2.90L134.78-25.12L142.19-25.12L149.50-5.20L146.74-5.20L154.05-25.12L161.46-25.12L150.70 2.35Q149.68 4.92 148.21 6.67Q146.74 8.42 144.88 9.27Q143.01 10.12 140.71 10.12ZM176.36 0.55L176.36 0.55Q172.59 0.55 169.58-1.17Q166.57-2.90 164.79-5.89Q163.02-8.88 163.02-12.60L163.02-12.60Q163.02-16.33 164.77-19.30Q166.52-22.26 169.56-23.97Q172.59-25.67 176.36-25.67L176.36-25.67Q179.17-25.67 181.56-24.70Q183.95-23.74 185.66-22.01Q187.36-20.29 188.09-17.94L188.09-17.94L182.11-15.36Q181.47-17.25 179.93-18.35Q178.39-19.46 176.36-19.46L176.36-19.46Q174.57-19.46 173.17-18.58Q171.76-17.71 170.96-16.15Q170.15-14.58 170.15-12.56L170.15-12.56Q170.15-10.53 170.96-8.97Q171.76-7.41 173.17-6.53Q174.57-5.66 176.36-5.66L176.36-5.66Q178.43-5.66 179.95-6.76Q181.47-7.87 182.11-9.75L182.11-9.75L188.09-7.13Q187.40-4.92 185.70-3.17Q184-1.43 181.61-0.44Q179.22 0.55 176.36 0.55ZM199.04 0L192.14 0L192.14-34.82L199.04-34.82L199.04 0ZM216.20 0.55L216.20 0.55Q212.20 0.55 209.25-1.22Q206.31-2.99 204.70-5.98Q203.09-8.97 203.09-12.60L203.09-12.60Q203.09-16.38 204.77-19.32Q206.45-22.26 209.30-23.97Q212.15-25.67 215.74-25.67L215.74-25.67Q218.73-25.67 221.03-24.72Q223.33-23.78 224.92-22.08Q226.50-20.38 227.33-18.15Q228.16-15.92 228.16-13.29L228.16-13.29Q228.16-12.56 228.09-11.85Q228.02-11.13 227.84-10.63L227.84-10.63L209.02-10.63L209.02-15.69L223.93-15.69L220.66-13.29Q221.12-15.27 220.62-16.81Q220.11-18.35 218.84-19.25Q217.58-20.15 215.74-20.15L215.74-20.15Q213.95-20.15 212.66-19.27Q211.37-18.40 210.73-16.70Q210.08-15.00 210.22-12.56L210.22-12.56Q210.04-10.44 210.73-8.83Q211.42-7.22 212.84-6.33Q214.27-5.43 216.29-5.43L216.29-5.43Q218.13-5.43 219.44-6.16Q220.75-6.90 221.49-8.19L221.49-8.19L227.01-5.57Q226.27-3.73 224.69-2.35Q223.10-0.97 220.94-0.21Q218.78 0.55 216.20 0.55Z"/>
  </g>
</svg>